HIERARCHY
ROOT hips
{
  OFFSET 0 11.86390953 0.3628582958
  CHANNELS 6 Xposition Yposition Zposition Yrotation Xrotation Zrotation
  JOINT spine
  {
    OFFSET 0 0.05383551117999996 0
    CHANNELS 3 Yrotation Xrotation Zrotation
    JOINT chest
    {
      OFFSET 0 0.6394558760401424 0
      CHANNELS 3 Yrotation Xrotation Zrotation
      JOINT neck
      {
        OFFSET 0 2.720089088562982 0
        CHANNELS 3 Yrotation Xrotation Zrotation
        JOINT head
        {
          OFFSET 0 0.37880844870545777 0
          CHANNELS 3 Yrotation Xrotation Zrotation
          JOINT rightEye
          {
            OFFSET -0.42867780714 0.7547055649100001 0.7381831347
            CHANNELS 3 Yrotation Xrotation Zrotation
            End Site
            {
              OFFSET -0.42867780714 0.7547055649100001 0.7381831347
            }
          }
          JOINT leftEye
          {
            OFFSET 0.428676479 0.7547055559999993 0.7381844503
            CHANNELS 3 Yrotation Xrotation Zrotation
            End Site
            {
              OFFSET 0.428676479 0.7547055559999993 0.7381844503
            }
          }
          JOINT jaw
          {
            OFFSET -0.18933892286100001 1.5626303011000007 1.137441874206
            CHANNELS 3 Yrotation Xrotation Zrotation
            End Site
            {
              OFFSET -0.18933892286100001 1.5626303011000007 1.137441874206
            }
          }
        }
      }
      JOINT rightShoulder
      {
        OFFSET -0.6795351508 2.0665205 0
        CHANNELS 3 Yrotation Xrotation Zrotation
        JOINT rightUpperArm
        {
          OFFSET -0.7287400483531672 0 0
          CHANNELS 3 Yrotation Xrotation Zrotation
          JOINT rightLowerArm
          {
            OFFSET -1.9872982039174532 0 0
            CHANNELS 3 Yrotation Xrotation Zrotation
            JOINT rightHand
            {
              OFFSET -2.6451847532219275 0 0
              CHANNELS 3 Yrotation Xrotation Zrotation
              JOINT rightLittleProximal
              {
                OFFSET -0.8008804099999995 -0.09592044000000044 -0.26183688629999996
                CHANNELS 3 Yrotation Xrotation Zrotation
                JOINT rightLittleIntermediate
                {
                  OFFSET -0.2473955153999997 -0.02541697026000067 0.002370178700999967
                  CHANNELS 3 Yrotation Xrotation Zrotation
                  JOINT rightLittleDistal
                  {
                    OFFSET -0.163687229200001 -0.015790700860001117 -0.0004274845300000635
                    CHANNELS 3 Yrotation Xrotation Zrotation
                    End Site
                    {
                      OFFSET -0.163687229200001 -0.015790700860001117 -0.0004274845300000635
                    }
                  }
                }
              }
              JOINT rightRingProximal
              {
                OFFSET -0.8393382799999985 -0.06223833561000025 -0.09213143500000005
                CHANNELS 3 Yrotation Xrotation Zrotation
                JOINT rightRingIntermediate
                {
                  OFFSET -0.3284497260000011 -0.03264224524000103 0.009408593183000052
                  CHANNELS 3 Yrotation Xrotation Zrotation
                  JOINT rightRingDistal
                  {
                    OFFSET -0.19447660429999902 -0.021730899850000318 0.003074347969000052
                    CHANNELS 3 Yrotation Xrotation Zrotation
                    End Site
                    {
                      OFFSET -0.19447660429999902 -0.021730899850000318 0.003074347969000052
                    }
                  }
                }
              }
              JOINT rightMiddleProximal
              {
                OFFSET -0.8473005199999989 -0.06735503500000095 0.10541820299999995
                CHANNELS 3 Yrotation Xrotation Zrotation
                JOINT rightMiddleIntermediate
                {
                  OFFSET -0.3450455799999995 -0.02481901642000084 0.019012570390000032
                  CHANNELS 3 Yrotation Xrotation Zrotation
                  JOINT rightMiddleDistal
                  {
                    OFFSET -0.23542332000000088 -0.025003910029999243 0.0075583457949999905
                    CHANNELS 3 Yrotation Xrotation Zrotation
                    End Site
                    {
                      OFFSET -0.23542332000000088 -0.025003910029999243 0.0075583457949999905
                    }
                  }
                }
              }
              JOINT rightIndexProximal
              {
                OFFSET -0.8008568281999987 -0.09897839600000169 0.29462796
                CHANNELS 3 Yrotation Xrotation Zrotation
                JOINT rightIndexIntermediate
                {
                  OFFSET -0.30524754480000016 -0.024634122809999992 0.02743375304999998
                  CHANNELS 3 Yrotation Xrotation Zrotation
                  JOINT rightIndexDistal
                  {
                    OFFSET -0.23067378950000017 -0.016876459159999913 0.008484125099999983
                    CHANNELS 3 Yrotation Xrotation Zrotation
                    End Site
                    {
                      OFFSET -0.23067378950000017 -0.016876459159999913 0.008484125099999983
                    }
                  }
                }
              }
              JOINT rightThumbProximal
              {
                OFFSET -0.25574064999999935 -0.12833189930000155 0.22385698609999993
                CHANNELS 3 Yrotation Xrotation Zrotation
                JOINT rightThumbIntermediate
                {
                  OFFSET -0.22791743260000086 -0.07103586192999978 0.27385039
                  CHANNELS 3 Yrotation Xrotation Zrotation
                  JOINT rightThumbDistal
                  {
                    OFFSET -0.13610267659999975 -0.03369390969999997 0.14246511509999996
                    CHANNELS 3 Yrotation Xrotation Zrotation
                    End Site
                    {
                      OFFSET -0.13610267659999975 -0.03369390969999997 0.14246511509999996
                    }
                  }
                }
              }
            }
          }
        }
      }
      JOINT leftShoulder
      {
        OFFSET 0.6795338396 2.0665205 0
        CHANNELS 3 Yrotation Xrotation Zrotation
        JOINT leftUpperArm
        {
          OFFSET 0.7287383950230443 0 0
          CHANNELS 3 Yrotation Xrotation Zrotation
          JOINT leftLowerArm
          {
            OFFSET 1.9872997282019604 0 0
            CHANNELS 3 Yrotation Xrotation Zrotation
            JOINT leftHand
            {
              OFFSET 2.6451820781302327 0 0
              CHANNELS 3 Yrotation Xrotation Zrotation
              JOINT leftLittleProximal
              {
                OFFSET 0.8008804099999995 -0.09592306899999814 -0.2618342639000001
                CHANNELS 3 Yrotation Xrotation Zrotation
                JOINT leftLittleIntermediate
                {
                  OFFSET 0.2473981400000007 -0.02542352681000093 0.0023609995859999455
                  CHANNELS 3 Yrotation Xrotation Zrotation
                  JOINT leftLittleDistal
                  {
                    OFFSET 0.1636846068000002 -0.015794634789999318 -0.00043272972159996703
                    CHANNELS 3 Yrotation Xrotation Zrotation
                    End Site
                    {
                      OFFSET 0.1636846068000002 -0.015794634789999318 -0.00043272972159996703
                    }
                  }
                }
              }
              JOINT leftRingProximal
              {
                OFFSET 0.8393409199999996 -0.062242267999998324 -0.0921281570000001
                CHANNELS 3 Yrotation Xrotation Zrotation
                JOINT leftRingIntermediate
                {
                  OFFSET 0.3284471036000003 -0.03264224524000103 0.009405970574000042
                  CHANNELS 3 Yrotation Xrotation Zrotation
                  JOINT leftRingDistal
                  {
                    OFFSET 0.1944779099999996 -0.021732211159998904 0.003073036670000001
                    CHANNELS 3 Yrotation Xrotation Zrotation
                    End Site
                    {
                      OFFSET 0.1944779099999996 -0.021732211159998904 0.003073036670000001
                    }
                  }
                }
              }
              JOINT leftMiddleProximal
              {
                OFFSET 0.8473005200000001 -0.06736028199999788 0.1054214809999999
                CHANNELS 3 Yrotation Xrotation Zrotation
                JOINT leftMiddleIntermediate
                {
                  OFFSET 0.3450455799999995 -0.024824261000000014 0.019013225990000007
                  CHANNELS 3 Yrotation Xrotation Zrotation
                  JOINT leftMiddleDistal
                  {
                    OFFSET 0.2354259489999998 -0.025005222000000327 0.0075590014499999705
                    CHANNELS 3 Yrotation Xrotation Zrotation
                    End Site
                    {
                      OFFSET 0.2354259489999998 -0.025005222000000327 0.0075590014499999705
                    }
                  }
                }
              }
              JOINT leftIndexProximal
              {
                OFFSET 0.8008594516999996 -0.09898495199999946 0.29463124239999994
                CHANNELS 3 Yrotation Xrotation Zrotation
                JOINT leftIndexIntermediate
                {
                  OFFSET 0.30524754480000016 -0.024632811499998963 0.02743047472
                  CHANNELS 3 Yrotation Xrotation Zrotation
                  JOINT leftIndexDistal
                  {
                    OFFSET 0.23067378950000017 -0.016876459159999913 0.008481502700000004
                    CHANNELS 3 Yrotation Xrotation Zrotation
                    End Site
                    {
                      OFFSET 0.23067378950000017 -0.016876459159999913 0.008481502700000004
                    }
                  }
                }
              }
              JOINT leftThumbProximal
              {
                OFFSET 0.25574326469999953 -0.12833321050000013 0.22385764169999997
                CHANNELS 3 Yrotation Xrotation Zrotation
                JOINT leftThumbIntermediate
                {
                  OFFSET 0.22804987480000094 -0.07138466829999968 0.273648441
                  CHANNELS 3 Yrotation Xrotation Zrotation
                  JOINT leftThumbDistal
                  {
                    OFFSET 0.13614857189999907 -0.033867001519998885 0.14238119169999996
                    CHANNELS 3 Yrotation Xrotation Zrotation
                    End Site
                    {
                      OFFSET 0.13614857189999907 -0.033867001519998885 0.14238119169999996
                    }
                  }
                }
              }
            }
          }
        }
      }
    }
  }
  JOINT rightUpperLeg
  {
    OFFSET -0.9749898906000001 -1.8495733739999998 0
    CHANNELS 3 Yrotation Xrotation Zrotation
    JOINT rightLowerLeg
    {
      OFFSET 0 -4.1566544686813165 0
      CHANNELS 3 Yrotation Xrotation Zrotation
      JOINT rightFoot
      {
        OFFSET 0.14539718599999998 -4.225553926 -0.3666210900000001
        CHANNELS 3 Yrotation Xrotation Zrotation
        JOINT rightToes
        {
          OFFSET 0.1706738473 -0.9584117400000015 1.0093348617
          CHANNELS 3 Yrotation Xrotation Zrotation
          End Site
          {
            OFFSET 0.1706738473 -0.9584117400000015 1.0093348617
          }
        }
      }
    }
  }
  JOINT leftUpperLeg
  {
    OFFSET 0.9749898906000001 -1.8495733739999998 0
    CHANNELS 3 Yrotation Xrotation Zrotation
    JOINT leftLowerLeg
    {
      OFFSET 0 -4.156653488267941 0
      CHANNELS 3 Yrotation Xrotation Zrotation
      JOINT leftFoot
      {
        OFFSET -0.14537357999999995 -4.225555399999999 -0.36661124279999996
        CHANNELS 3 Yrotation Xrotation Zrotation
        JOINT leftToes
        {
          OFFSET -0.17066467000000002 -0.9584157000000019 1.0093348617
          CHANNELS 3 Yrotation Xrotation Zrotation
          End Site
          {
            OFFSET -0.17066467000000002 -0.9584157000000019 1.0093348617
          }
        }
      }
    }
  }
}
MOTION
Frames: 4
Frame Time: 0.03333333333333333
-0.03705186769366264 -0.29160098965576253 0.016716619953513145 -8.729336278788765 -4.0658184232333845 1.0947301781007743 0.37891928113870005 3.9209625098781284 -0.14776284438677798 1.5272161752224263 15.676580655002578 0.29433225038066224 -0.5788259471476793 3.0081788053256964 2.162014865589947 1.3889670077269525 -9.093642042827039 -3.3157523298209184 0 0 0 0 0 0 0 0 0 0.000005442481306054512 -0.0000033089316390713675 0.00029409578730445874 6.015252138187924 11.209388035819444 75.26445228721438 90.32581217937471 0.4745727862489909 -1.4339680317776118 5.979869472011508 30.477732478966836 -18.980831556937712 2.4375625689645912 2.865222360598552 33.46885480750345 6.6235253227549515 -2.3177712056541036 37.58511942796328 -0.05689525076138824 8.63450980036477e-7 0.000734946061701708 -4.281001172098464 2.094825726778829 19.595168901194192 5.490397907708825 -2.8504745023658873 52.43640210812378 -0.012898923753936413 1.3074994719180616e-8 0.00016662218132246036 -1.5056192548843403 -1.9052246817450509 22.94574310496019 1.7506986102312732 -0.3593822579396284 22.71422249354061 -0.03689691684742937 5.988661320840165e-8 0.0004766170014904347 -6.84667359228801 -6.030255761935089 18.805975627490255 -0.251748913733971 0.02819116003956088 8.965754527968993 -0.010099156622314856 -6.596802379750212e-9 0.00013045612070555345 5.198905664250649 5.733900292004524 13.797416195237572 -11.1822267191906 3.044542434623535 1.3280126834450077 0.7310951881820206 -0.3230330002039053 0.16012442396985851 -0.000012821500071013424 -0.000021788937307882556 0.00019886758714477183 -21.125577981676507 5.123362276478694 -72.64504632185182 -78.092253792113 0.07637209631508055 1.459925124774544 -3.4132222177306133 35.86615870101448 23.21329343782751 1.1034852272592854 -0.2766706941439872 -42.05957508020331 -1.1902866531638367 -0.02737523248228816 -8.711506617626817 -0.0076984544103127495 -0.0000018736548904084268 0.00009943815780259709 4.399518075738608 0.4963166736283204 -29.21495354992093 -2.4882254528434506 -0.570338538874003 -26.22865751294275 0.0000041258049479084875 0.00000351725705470748 -6.061851736281255e-7 2.033912234018964 -0.38887417641215294 -14.051135495198315 -2.0564249203660485 -0.4171288335724346 -22.27481829868565 0.0023932930310715697 -4.2210899388330243e-7 -0.000030307664943619223 1.9930440445279916 -6.063836261974984 -8.171731251631263 0.14523485225740237 -0.04200611405578009 -20.169050653844774 -0.007600771534494231 -0.000005312656051066937 0.00009420691825183659 -10.043712973024206 -3.519259999066481 -3.4131018585328263 20.379038742658278 2.8489479883564437 -5.156400847011164 -0.6435935619893486 -0.28038684121013985 -0.14791546001534703 0.3525813385750886 -6.754960924326992 -4.63617376360829 0.1242739064301614 24.501116128693578 0.9676327102079927 -8.429553106958297 -13.5423090250516 6.0982045702315135 -0.10631757907981707 -0.012213348828987515 0.26351174375066466 1.4756801297124342 -5.000977117496079 4.150227342620207 -0.21489691343811027 21.2003588887601 -0.862680905041144 11.883976927506474 -10.9540528299751 -6.7226224324147195 -0.025835278575817744 -0.016597601706630046 0.02901298878088102
-0.037399809807538986 -0.2925603860180672 0.014814051799476147 -8.729756154132055 -4.065260786468186 1.1006886388232888 0.37700430118894696 3.921537164156026 -0.14846313432073788 1.519459125112682 15.678886241599907 0.2940114291650421 -0.5778379175210864 3.006584107788993 2.164669181029858 1.4008747718179098 -9.08853118626207 -3.328660010079947 0 0 0 0 0 0 0 0 0 -0.006256458257444883 0.0030394283457379286 -0.01192410439372243 6.02454868399333 11.204019596841185 75.26314124973926 90.3598863935588 0.4765993411727396 -1.433132334778366 5.97728621243366 30.479103556855993 -18.944843378429557 2.4336796023041605 2.868442556072372 33.462282921126025 6.631019774607601 -2.3243871895556003 37.64297642648958 -0.05689525076138824 8.63450980036477e-7 0.000734946061701708 -4.279542887366032 2.094568141901398 19.59985979701733 5.490737549823426 -2.8509258533890307 52.44092320773353 -0.012898923753936413 1.3074994719180616e-8 0.00016662218132246036 -1.5028622284718252 -1.9064088805078778 22.937230179061526 1.7485692334504526 -0.3583707564508983 22.681171571757297 -0.03689691684742937 5.988661320840165e-8 0.0004766170014904347 -6.861919585392493 -6.024345713260409 18.812923946360804 -0.2508449744870516 0.028042756819695935 8.932660367857512 -0.010099156622314856 -6.596802379750212e-9 0.00013045612070555345 5.2601832219874565 5.729650302614045 13.81231711200793 -11.241928576242037 3.027205494829235 1.3499812923663987 0.7310951881820206 -0.3230330002039053 0.16012442396985851 0.00011835007261930703 0.00010774963825634581 0.0007163823733522066 -21.112603273560428 5.115795402556593 -72.6345148612827 -78.11734681285526 0.07813980957623087 1.4592018842181738 -3.379320601446861 35.88243119877191 23.19278860860253 1.100573722939372 -0.2791778299518309 -42.07506447597622 -1.1907703177489497 -0.027443200876434953 -8.715577654148369 -0.0076984544103127495 -0.0000018736548904084268 0.00009943815780259709 4.409883926633568 0.5024754436868863 -29.219182100962236 -2.4891614274240705 -0.5707766531986258 -26.239071150365593 0.0000041258049479084875 0.00000351725705470748 -6.061851736281255e-7 2.031662184715612 -0.3893102780381863 -14.022386816561678 -2.052913816317594 -0.4156220433818921 -22.23355055454779 0.0023932930310715697 -4.2210899388330243e-7 -0.000030307664943619223 1.983845909665879 -6.06527180553974 -8.184862255251973 0.14519489843732397 -0.042025270607118546 -20.156817349475777 -0.007600771534494231 -0.000005312656051066937 0.00009420691825183659 -10.06366468523949 -3.573612650859552 -3.3873123149774935 20.393624462996794 2.8437775596040193 -5.1581079834523065 -0.6435935619893486 -0.28038684121013985 -0.14791546001534703 0.33451493014125067 -6.794815897546719 -4.64330188829263 0.12493600555174345 24.55314597210146 0.9699186299804411 -8.407736307062905 -13.557761275170437 6.089861113326881 -0.10642600147649296 -0.012227986378279055 0.2638047984582841 1.4750174667201728 -5.03392713368423 4.150237078385048 -0.21483514129480005 21.24486190000463 -0.8645086574110964 11.876668419704522 -10.965604193862319 -6.727447484305721 -0.025845342098320352 -0.016591153380793075 0.02905859229622559
-0.03802172467112541 -0.29419689114502034 0.01126574445515871 -8.729107549221165 -4.062318114115878 1.1113767710711469 0.37270907652714486 3.9211713194285713 -0.14944789436389114 1.5021886327187082 15.677479830678154 0.2940969754878321 -0.5764962494757808 3.0048365904203953 2.166767477327565 1.4174454763665612 -9.064771977648434 -3.35000200406469 0 0 0 0 0 0 0 0 0 -0.0210264842051929 0.009985730780767903 -0.04019900797714557 6.053836432469427 11.193775624429447 75.26673279252682 90.4176456461456 0.4793151295514196 -1.4317523368468388 5.950710190275335 30.474007682761428 -18.92376287281705 2.4308274333371473 2.871280430306657 33.45419176914861 6.632336602802053 -2.3255870889575903 37.65326114058986 -0.05689525076138824 8.63450980036477e-7 0.000734946061701708 -4.291083686650119 2.0991213773502704 19.604941792913863 5.489692769860441 -2.849575647588587 52.42696464184069 -0.012898923753936413 1.3074994719180616e-8 0.00016662218132246036 -1.5033801335168169 -1.9060872567416858 22.91606343211078 1.7443187992765847 -0.3563417239152049 22.615044317367637 -0.03689691684742937 5.988661320840165e-8 0.0004766170014904347 -6.878630541749651 -6.016380899775232 18.84151537876018 -0.25122148509543074 0.028109394527797045 8.946529311535231 -0.010099156622314856 -6.596802379750212e-9 0.00013045612070555345 5.317328795103981 5.72942549081181 13.828717230047666 -11.220960475250125 3.032512499826946 1.3397535553469173 0.7310951881820206 -0.3230330002039053 0.16012442396985851 -0.0009742050265358605 -0.00030328813220262745 -0.002588314441568517 -21.087687403696048 5.106483405842097 -72.60600797544862 -78.16711293591341 0.08194630973236953 1.457782801825663 -3.322233399760091 35.917942225081504 23.150645034072152 1.0868076333335657 -0.2919589268513029 -42.08289063690155 -1.1920298231491433 -0.027605207779557932 -8.725824474672551 -0.0076984544103127495 -0.0000018736548904084268 0.00009943815780259709 4.420542834520559 0.5071739958001757 -29.195321445943176 -2.49154999537464 -0.5719643113944325 -26.266336271478274 0.0000041258049479084875 0.00000351725705470748 -6.061851736281255e-7 2.035262685174012 -0.38803479090472665 -13.952199867006396 -2.0463312197584926 -0.4128260750658023 -22.156422673540366 0.0023932930310715697 -4.2210899388330243e-7 -0.000030307664943619223 1.9709288196667536 -6.067568940768081 -8.171495253585222 0.1449991714075081 -0.04214967479909005 -20.117370024286192 -0.007600771534494231 -0.000005312656051066937 0.00009420691825183659 -10.125238344862987 -3.6786820027159957 -3.3421866798040183 20.390881879999775 2.8438128211913516 -5.155861706566391 -0.6435935619893486 -0.28038684121013985 -0.14791546001534703 0.3042617336192529 -6.8673199370718265 -4.656404777467977 0.12624999728784028 24.642901794838245 0.9739453410387254 -8.36748482257846 -13.583804477403284 6.074009710238335 -0.1065852566669307 -0.012242407149101577 0.26420562999517183 1.470811521663815 -5.093582182911091 4.1504217938288965 -0.21463176650195287 21.320409499907793 -0.8675440654342432 11.862524591374049 -10.983535225701937 -6.735933912836363 -0.025887805660942207 -0.016631108988600853 0.02908454901406251
-0.038614679127931595 -0.2952869408886727 0.008217125199735165 -8.726965993944647 -4.054588300764214 1.1185133524122368 0.36810983838631317 3.9177721802806618 -0.14961231721897697 1.4838402894976843 15.663919901498247 0.29560404734933643 -0.5764712434799878 3.004841933852311 2.163803143557648 1.4202683434752472 -9.024863847017386 -3.362738487368076 0 0 0 0 0 0 0 0 0 -0.03837319573478281 0.01800596976896324 -0.07262176126691323 6.091031252593489 11.187781719636112 75.28375660104493 90.46624837408521 0.47998317747745656 -1.4307191517070923 5.885835723588121 30.45963289034092 -18.981046460185837 2.4324153484633246 2.8709957663483188 33.44749439846619 6.6266183884875325 -2.3205262419092856 37.60922780977982 -0.05689525076138824 8.63450980036477e-7 0.000734946061701708 -4.307935245206293 2.1053288610466656 19.603146702101117 5.486043030238706 -2.8448223715793 52.37763999880926 -0.012898923753936413 1.3074994719180616e-8 0.00016662218132246036 -1.5086916883170354 -1.903928364104915 22.91608644926561 1.7400628225788803 -0.35430289992268066 22.548918135912345 -0.03689691684742937 5.988661320840165e-8 0.0004766170014904347 -6.876614975454623 -6.0145531514449475 18.878830705677068 -0.2515662612727911 0.028161851587566657 8.959881382992844 -0.010099156622314856 -6.596802379750212e-9 0.00013045612070555345 5.301923292418141 5.750580926996646 13.838151488528705 -11.14416585553238 3.053775621441191 1.3080296582868942 0.7310951881820206 -0.3230330002039053 0.16012442396985851 -0.0030315115502583647 -0.001119492350925452 -0.008926817882901002 -21.0598573553402 5.104957634774501 -72.56969792004536 -78.2190146919158 0.08598060131688812 1.4563996529149315 -3.2809736353332135 35.942075040663696 23.11561683639262 1.0684667494129245 -0.30914709431883436 -42.079704002536786 -1.1952059904927266 -0.028057524437503166 -8.750379544180712 -0.0076984544103127495 -0.0000018736548904084268 0.00009943815780259709 4.414158719852571 0.5022411271754273 -29.172752486171124 -2.494319748834163 -0.5733353802669886 -26.29753581765936 0.0000041258049479084875 0.00000351725705470748 -6.061851736281255e-7 2.035816627201966 -0.38765207809962365 -13.902318659295934 -2.041480392890417 -0.41077803263379786 -22.099590244602606 0.0023932930310715697 -4.2210899388330243e-7 -0.000030307664943619223 1.9697240273568755 -6.068125732447741 -8.148435280528123 0.1447985218500516 -0.042277240622654665 -20.07308707916018 -0.007600771534494231 -0.000005312656051066937 0.00009420691825183659 -10.193195149388675 -3.76698333273147 -3.3077305092765137 20.387749482505363 2.8439805808791814 -5.153644990296943 -0.6435935619893486 -0.28038684121013985 -0.14791546001534703 0.28629089652101636 -6.926396979167854 -4.6641752685401405 0.12715156954229279 24.70360623764794 0.9766837660229881 -8.341575812988197 -13.59996829941968 6.059675433815736 -0.10667334194202015 -0.012250724772235917 0.26442496745332555 1.4642110811195077 -5.14220634664242 4.151885306975885 -0.21420624471737476 21.369569475579006 -0.8693737414937546 11.853823719298841 -10.990825182395184 -6.742682272287273 -0.02592937876437924 -0.016637518961324493 0.02915082652314015
